<svg xmlns="http://www.w3.org/2000/svg" width="25px" height="18px" viewBox="0 0 25 18"><g id="Logo-and-Icons" stroke="none" stroke-width="1" fill="none" fill-rule="evenodd"><g id="LARQ_Add-to-cart" fill="#163B5C" fill-rule="nonzero"><path d="M9.34485981,17.9831776 C7.99906542,17.9831776 6.91401869,16.8897196 6.91401869,15.5523364 C6.91401869,14.2149533 8.00747664,13.1214953 9.34485981,13.1214953 C10.6906542,13.1214953 11.7757009,14.2149533 11.7757009,15.5523364 C11.7757009,16.8897196 10.682243,17.9831776 9.34485981,17.9831776 Z M9.34485981,14.7364486 C8.89906542,14.7364486 8.53738318,15.0981308 8.53738318,15.5439252 C8.53738318,15.9897196 8.89906542,16.3514019 9.34485981,16.3514019 C9.79065421,16.3514019 10.1523364,15.9897196 10.1523364,15.5439252 C10.1523364,15.0981308 9.79065421,14.7364486 9.34485981,14.7364486 Z" id="XMLID_514_"/><path d="M19.4046729,17.9831776 C18.0588785,17.9831776 16.9738318,16.8897196 16.9738318,15.5523364 C16.9738318,14.2149533 18.0672897,13.1214953 19.4046729,13.1214953 C20.7504673,13.1214953 21.835514,14.2149533 21.835514,15.5523364 C21.835514,16.8897196 20.7420561,17.9831776 19.4046729,17.9831776 Z M19.4046729,14.7364486 C18.9588785,14.7364486 18.5971963,15.0981308 18.5971963,15.5439252 C18.5971963,15.9897196 18.9588785,16.3514019 19.4046729,16.3514019 C19.8504673,16.3514019 20.2121495,15.9897196 20.2121495,15.5439252 C20.2121495,15.0981308 19.8504673,14.7364486 19.4046729,14.7364486 Z" id="XMLID_511_"/><path d="M20.9943925,12.1037383 L7.2,12.1037383 C6.84672897,12.1037383 6.53551402,11.8766355 6.42616822,11.5401869 L3.2046729,1.6317757 L0.88317757,1.6317757 C0.437383178,1.6317757 0.0757009346,1.27009346 0.0757009346,0.824299065 C0.0757009346,0.378504673 0.437383178,0.0168224299 0.88317757,0.0168224299 L3.79345794,0.0168224299 C4.14672897,0.0168224299 4.45794393,0.243925234 4.56728972,0.580373832 L7.79719626,10.4971963 L20.4140187,10.4971963 L22.7271028,3.39813084 L9.34485981,3.39813084 C8.89906542,3.39813084 8.53738318,3.0364486 8.53738318,2.59065421 C8.53738318,2.14485981 8.89906542,1.78317757 9.34485981,1.78317757 L23.8373832,1.78317757 C24.0981308,1.78317757 24.3420561,1.90934579 24.4934579,2.11962617 C24.6448598,2.32990654 24.6869159,2.59906542 24.611215,2.85140187 L21.7682243,11.5738318 C21.6588785,11.8766355 21.3476636,12.1037383 20.9943925,12.1037383 Z" id="XMLID_510_"/></g></g></svg>